# xmcd
#
# Track frame offsets: 
#        150
#        11952
#        24300
#        36707
#        45615
#        58777
#        70665
#        81797
#        93490
#        105085
#        118082
#        130535
#        142630
#        153930
#        166645
#        180860
#        193877
#        205130
#
# Disc length: 2922 seconds
#
# Revision: 7
# Processed by: cddbd v1.5.2PL0 Copyright (c) Steve Scherf et al.
# Submitted via: ExactAudioCopy v0.99pb4
#
DISCID=e00b6812
DTITLE=THE PLATTERS - THE PLATTERS
DYEAR=1900
DGENRE=
TTITLE0=ONLY YOU
TTITLE1=TWILIGHT TIME
TTITLE2=MY PRAYER
TTITLE3=YOU'LL NEVER,NEVER KNOW
TTITLE4=ONE IN A MILLION
TTITLE5=SMOKE GETS IN YOUR EYES
TTITLE6=THE MAGIC TOUCH
TTITLE7=HEAVEN ON EARTH
TTITLE8=THE GREAT PRETENDER
TTITLE9=I'M SORRY
TTITLE10=I LOVE YOU 1000 TIME
TTITLE11=CRYING IN THE CHAPEL
TTITLE12=MY DREAM
TTITLE13=REMEMBER WHEN
TTITLE14=IF I DON'T CARE
TTITLE15=I'LL NEVER SMILE AGEIA
TTITLE16=RED SAILS IN THE SUNSET
TTITLE17=HARBOR LIGHTS
EXTD=
EXTT0=
EXTT1=
EXTT2=
EXTT3=
EXTT4=
EXTT5=
EXTT6=
EXTT7=
EXTT8=
EXTT9=
EXTT10=
EXTT11=
EXTT12=
EXTT13=
EXTT14=
EXTT15=
EXTT16=
EXTT17=
PLAYORDER=
